<svg width="157" height="53" viewBox="0 0 157 53" fill="none" xmlns="http://www.w3.org/2000/svg">
<rect width="157" height="53" rx="26.5" fill="#223158"/>
<path d="M46.9579 26.4105C46.9579 23.8238 49.1164 22.4845 49.2184 22.4845C47.9861 20.7259 46.1329 20.4192 45.41 20.4192C43.8625 20.2147 42.3249 21.3496 41.5 21.3496C40.6754 21.3496 39.4431 20.4192 38.1092 20.4192C36.358 20.4192 34.8204 21.4518 33.8938 23.0059C32.0407 26.206 33.3746 30.8578 35.1258 33.4346C35.9507 34.6715 36.979 36.1235 38.4149 36.0212C39.7488 36.0212 40.2681 35.1929 41.8057 35.1929C43.3433 35.1929 43.8625 36.0212 45.1964 36.0212C46.632 36.0212 47.457 34.784 48.2816 33.4346C49.3101 31.9928 49.7172 30.541 49.7172 30.541C49.6257 30.541 46.9579 29.5084 46.9579 26.4105Z" fill="white"/>
<path d="M44.3814 18.6613C45.1044 17.7309 45.5117 16.596 45.41 15.3589C44.3814 15.3589 43.1495 16.0848 42.4266 16.9129C41.8053 17.6388 41.1946 18.9782 41.2963 20.113C42.4266 20.2153 43.6585 19.5916 44.3814 18.6613Z" fill="white"/>
<path d="M71.87 32L68.16 22.032H65.808L62.098 32H64.058L64.814 29.928H69.154L69.91 32H71.87ZM68.678 28.458H65.276L66.984 23.768L68.678 28.458ZM76.6568 32.14C78.6028 32.14 79.8348 30.754 79.8348 28.388C79.8348 26.022 78.6028 24.636 76.6568 24.636C75.4388 24.636 74.7388 25.168 74.3468 26.008V24.776H72.6248V34.744H74.4308V30.908C74.8368 31.692 75.5648 32.14 76.6568 32.14ZM76.2228 30.768C75.1588 30.768 74.4308 30.04 74.4308 28.388C74.4308 26.736 75.1588 26.008 76.2228 26.008C77.3008 26.008 78.0288 26.736 78.0288 28.388C78.0288 30.04 77.3008 30.768 76.2228 30.768ZM84.9009 32.14C86.8469 32.14 88.0789 30.754 88.0789 28.388C88.0789 26.022 86.8469 24.636 84.9009 24.636C83.6829 24.636 82.9829 25.168 82.5909 26.008V24.776H80.8689V34.744H82.6749V30.908C83.0809 31.692 83.8089 32.14 84.9009 32.14ZM84.4669 30.768C83.4029 30.768 82.6749 30.04 82.6749 28.388C82.6749 26.736 83.4029 26.008 84.4669 26.008C85.5449 26.008 86.2729 26.736 86.2729 28.388C86.2729 30.04 85.5449 30.768 84.4669 30.768ZM96.4491 32.14C99.2211 32.14 100.565 30.894 100.565 29.032C100.565 27.31 99.4451 26.54 97.4151 26.246L96.1411 26.064C94.8111 25.882 94.4891 25.532 94.4891 24.846C94.4891 23.936 95.0771 23.32 96.4071 23.32C97.7371 23.32 98.3811 23.922 98.5071 25.098H100.313C100.313 23.152 99.0391 21.892 96.4491 21.892C93.8591 21.892 92.5851 23.166 92.5851 24.958C92.5851 26.582 93.3971 27.31 95.4831 27.604L96.7571 27.786C98.2831 28.01 98.6611 28.458 98.6611 29.144C98.6611 30.068 98.0031 30.712 96.4911 30.712C94.9371 30.712 94.3351 30.11 94.1811 28.794H92.3331C92.3331 30.922 93.6771 32.14 96.4491 32.14ZM104.396 32.07C104.718 32.07 105.292 32.028 105.586 32V30.782L104.83 30.796C104.256 30.796 104.018 30.6 104.018 30.04V26.064H105.586V24.776H104.018V22.592H102.212V24.776H101.078V26.064H102.212V29.97C102.212 31.566 102.758 32.07 104.396 32.07ZM109.673 32.14C112.039 32.14 113.355 30.67 113.355 28.388C113.355 26.12 112.039 24.636 109.673 24.636C107.321 24.636 106.005 26.12 106.005 28.388C106.005 30.67 107.321 32.14 109.673 32.14ZM109.673 30.768C108.483 30.768 107.811 29.984 107.811 28.388C107.811 26.792 108.483 26.008 109.673 26.008C110.877 26.008 111.549 26.792 111.549 28.388C111.549 29.984 110.877 30.768 109.673 30.768ZM116.198 32V28.64C116.198 27.17 116.94 26.344 118.046 26.344L118.788 26.358V24.776C118.62 24.734 118.326 24.678 118.13 24.678C117.122 24.678 116.492 25.112 116.114 26.386V24.776H114.392V32H116.198ZM122.866 32.14C124.812 32.14 125.918 31.202 126.226 29.718H124.56C124.35 30.46 123.762 30.908 122.866 30.908C121.76 30.908 121.06 30.236 121.004 28.766H126.352C126.366 28.598 126.38 28.458 126.38 28.304C126.38 26.176 125.12 24.636 122.782 24.636C120.458 24.636 119.198 26.162 119.198 28.388C119.198 30.67 120.514 32.14 122.866 32.14ZM122.782 25.868C123.776 25.868 124.42 26.442 124.574 27.59H121.004C121.158 26.442 121.788 25.868 122.782 25.868Z" fill="white"/>
</svg>
