<svg width="157" height="53" viewBox="0 0 157 53" fill="none" xmlns="http://www.w3.org/2000/svg">
<rect width="157" height="53" rx="26.5" fill="#223158"/>
<path d="M29.2784 18.2568C29.0865 18.5362 29 18.8252 29 19.2009V33.9789C29 34.3545 29.0961 34.7302 29.2784 34.9229H29.3742L37.6253 26.638V26.5417V26.4454L29.2784 18.2568Z" fill="white"/>
<path opacity="0.4" d="M40.3384 29.4597L37.623 26.7334V26.6371V26.5408L40.3384 23.8145H40.4342L43.7156 25.693C44.6558 26.2614 44.6558 27.1092 43.7156 27.668L40.3384 29.4597Z" fill="white"/>
<path opacity="0.6" d="M40.4334 29.4599L37.6222 26.6372L29.3711 34.9221C29.6492 35.2977 30.2153 35.2977 30.7813 34.9221L40.4334 29.4599Z" fill="white"/>
<path opacity="0.6" d="M40.4357 23.8055L30.6879 18.247C30.1218 17.8712 29.6515 17.9676 29.2773 18.247L37.5285 26.5318L40.4357 23.8055Z" fill="white"/>
<path d="M57.138 32.14C58.93 32.14 59.924 31.482 60.358 30.32L60.526 32H61.912V26.568H57.586V27.87H60.106C59.994 29.536 59.182 30.586 57.32 30.586C55.318 30.586 54.282 29.312 54.282 27.016C54.282 24.72 55.318 23.446 57.32 23.446C58.93 23.446 59.854 24.3 60.106 25.378H61.814C61.814 23.586 60.246 21.892 57.32 21.892C54.156 21.892 52.378 23.978 52.378 27.016C52.378 30.054 54.058 32.14 57.138 32.14ZM66.587 32.14C68.953 32.14 70.269 30.67 70.269 28.388C70.269 26.12 68.953 24.636 66.587 24.636C64.235 24.636 62.919 26.12 62.919 28.388C62.919 30.67 64.235 32.14 66.587 32.14ZM66.587 30.768C65.397 30.768 64.725 29.984 64.725 28.388C64.725 26.792 65.397 26.008 66.587 26.008C67.791 26.008 68.463 26.792 68.463 28.388C68.463 29.984 67.791 30.768 66.587 30.768ZM74.6944 32.14C77.0604 32.14 78.3764 30.67 78.3764 28.388C78.3764 26.12 77.0604 24.636 74.6944 24.636C72.3424 24.636 71.0264 26.12 71.0264 28.388C71.0264 30.67 72.3424 32.14 74.6944 32.14ZM74.6944 30.768C73.5044 30.768 72.8324 29.984 72.8324 28.388C72.8324 26.792 73.5044 26.008 74.6944 26.008C75.8984 26.008 76.5704 26.792 76.5704 28.388C76.5704 29.984 75.8984 30.768 74.6944 30.768ZM82.3119 31.72C83.4039 31.72 84.1319 31.272 84.5379 30.488V31.916C84.5379 33.12 83.9219 33.694 82.8579 33.694C81.8779 33.694 81.3319 33.204 81.2199 32.294H79.5259C79.5259 33.848 80.6039 34.884 82.7739 34.884C85.1399 34.884 86.3439 33.652 86.3439 31.412V24.776H84.6219V26.008C84.2299 25.168 83.5159 24.636 82.3119 24.636C80.3659 24.636 79.1339 26.05 79.1339 28.178C79.1339 30.306 80.3659 31.72 82.3119 31.72ZM82.7319 30.432C81.6679 30.432 80.9399 29.676 80.9399 28.178C80.9399 26.68 81.6679 25.924 82.7319 25.924C83.8099 25.924 84.5379 26.68 84.5379 28.178C84.5379 29.676 83.8099 30.432 82.7319 30.432ZM89.464 32V22.032H87.658V32H89.464ZM94.1632 32.14C96.1092 32.14 97.2152 31.202 97.5232 29.718H95.8572C95.6472 30.46 95.0592 30.908 94.1632 30.908C93.0572 30.908 92.3572 30.236 92.3012 28.766H97.6492C97.6632 28.598 97.6772 28.458 97.6772 28.304C97.6772 26.176 96.4172 24.636 94.0792 24.636C91.7552 24.636 90.4952 26.162 90.4952 28.388C90.4952 30.67 91.8112 32.14 94.1632 32.14ZM94.0792 25.868C95.0732 25.868 95.7172 26.442 95.8712 27.59H92.3012C92.4552 26.442 93.0852 25.868 94.0792 25.868ZM110.269 25.21C110.269 23.166 108.897 22.032 106.685 22.032H102.331V32H104.235V28.388H106.685C108.897 28.388 110.269 27.268 110.269 25.21ZM108.365 25.21C108.365 26.414 107.679 26.96 106.419 26.96H104.235V23.46H106.419C107.679 23.46 108.365 24.02 108.365 25.21ZM113.116 32V22.032H111.31V32H113.116ZM116.752 32.14C117.984 32.14 118.712 31.706 119.118 30.88C119.118 31.44 119.216 31.734 119.426 32H121.064C120.924 31.762 120.84 31.132 120.84 30.152V27.058C120.84 25.588 119.916 24.636 117.69 24.636C115.464 24.636 114.54 25.588 114.54 27.058H116.332C116.402 26.288 116.864 25.924 117.704 25.924C118.6 25.924 119.034 26.344 119.034 27.058C119.034 27.436 118.824 27.632 118.096 27.702L116.626 27.828C114.806 27.968 114.148 28.85 114.148 29.956C114.148 31.286 115.058 32.14 116.752 32.14ZM117.284 30.908C116.36 30.908 115.954 30.474 115.954 29.83C115.954 29.312 116.318 28.934 117.228 28.85L118.082 28.78C118.572 28.738 118.908 28.654 119.034 28.5V29.004C119.034 30.054 118.404 30.908 117.284 30.908ZM121.908 34.744H122.622C124.386 34.744 125.338 34.016 126.206 31.678L128.782 24.776H126.892L125.016 30.6L123.14 24.776H121.25L123.826 31.678C123.924 31.93 123.966 32.168 123.966 32.378C123.966 33.05 123.476 33.456 122.636 33.456H121.908V34.744Z" fill="white"/>
</svg>
