<svg width="208" height="48" viewBox="0 0 208 48" fill="none" xmlns="http://www.w3.org/2000/svg">
<path d="M122.816 15.2041V46.6326H113.702V42.0427C112.771 43.6374 111.421 44.946 109.798 45.8256C108.118 46.7095 106.242 47.1573 104.344 47.1281C100.418 47.1281 97.4839 46.0323 95.5415 43.8406C93.5992 41.649 92.6301 38.3429 92.6342 33.9222V15.2041H101.982V34.1092C101.982 37.9108 103.614 39.8116 106.878 39.8116C108.818 39.8116 110.389 39.151 111.589 37.8298C112.79 36.5086 113.389 34.7729 113.387 32.6228V15.2041H122.816ZM158.558 0.870178V46.6326H149.322V41.9835C148.365 43.5992 146.969 44.91 145.296 45.7633C143.474 46.6935 141.452 47.1622 139.406 47.1281C136.853 47.1702 134.346 46.4463 132.208 45.0497C130.052 43.6082 128.344 41.5888 127.282 39.2226C126.104 36.7298 125.515 33.8682 125.515 30.6379C125.515 27.4076 126.104 24.5668 127.282 22.1155C128.343 19.7909 130.04 17.814 132.177 16.4131C134.337 15.0506 136.85 14.3518 139.403 14.4032C141.404 14.3786 143.381 14.8361 145.168 15.7369C146.832 16.5605 148.229 17.8386 149.197 19.4232V0.870178H158.558ZM147.477 37.6116C148.723 36.0225 149.347 33.7373 149.347 30.7563C149.347 27.821 148.716 25.5587 147.455 23.9695C146.194 22.3803 144.428 21.5847 142.158 21.5826C139.842 21.5826 138.044 22.3679 136.764 23.9384C135.484 25.5089 134.844 27.74 134.844 30.6317C134.844 33.6065 135.484 35.9103 136.764 37.5431C138.044 39.1759 139.842 39.9923 142.158 39.9923C144.457 39.9965 146.23 39.2029 147.477 37.6116ZM194.299 15.2041V46.6326H185.06V41.9835C184.103 43.6003 182.705 44.9113 181.031 45.7633C179.209 46.691 177.188 47.1575 175.144 47.1219C172.593 47.1909 170.079 46.4999 167.921 45.1366C165.763 43.7734 164.059 41.7995 163.026 39.4657C161.848 37.0082 161.259 34.1674 161.259 30.9433C161.259 27.7192 161.848 24.8462 163.026 22.3243C164.083 19.9468 165.791 17.9169 167.953 16.4692C170.09 15.0782 172.595 14.3587 175.144 14.4032C177.196 14.3703 179.222 14.8615 181.031 15.8304C182.7 16.7177 184.094 18.0468 185.06 19.6725V15.2041H194.299ZM183.203 37.6397C184.449 36.0692 185.072 33.7966 185.072 30.8218C185.072 27.847 184.449 25.5618 183.203 23.9664C181.956 22.3731 180.179 21.5774 177.871 21.5795C175.563 21.5816 173.765 22.4094 172.477 24.063C171.197 25.7249 170.557 28.0194 170.554 30.9464C170.552 33.8734 171.183 36.1149 172.446 37.6709C173.707 39.2185 175.515 39.9934 177.871 39.9954C180.183 39.9975 181.96 39.2133 183.203 37.6428V37.6397ZM90.7303 47.0751H79.1168L66.6214 32.8254V47.0751H57.1423V0.870178H66.6214V28.9303L78.5497 15.31H89.9139L76.4152 30.5787L90.7303 47.0751ZM31.1731 47.0907L12.9815 26.1508L22.9155 47.0907H16.029L5.89559 25.7426L10.1085 47.0907H5.87689L1.66086 25.7114V47.0907H0V0.870178H1.66086V23.929L5.93609 0.870178H10.1552L5.86131 24.0287L16.191 0.870178H23.0028L12.7135 23.9446L31.3974 0.870178H42.0731L22.7472 24.7423L42.1634 47.0907H31.1731Z" fill="white"/>
<path d="M202.148 46.5828C204.983 46.5828 207.28 44.285 207.28 41.4506C207.28 38.6162 204.983 36.3185 202.148 36.3185C199.314 36.3185 197.016 38.6162 197.016 41.4506C197.016 44.285 199.314 46.5828 202.148 46.5828Z" fill="white"/>
</svg>
