<svg width="36" height="36" viewBox="0 0 36 36" fill="none" xmlns="http://www.w3.org/2000/svg">
<path d="M18 0C14.4399 0 10.9598 1.05568 7.99974 3.03355C5.03966 5.01141 2.73255 7.82263 1.37018 11.1117C0.00779806 14.4008 -0.34866 18.02 0.345873 21.5116C1.04041 25.0033 2.75474 28.2106 5.27208 30.7279C7.78943 33.2453 10.9967 34.9596 14.4884 35.6541C17.98 36.3487 21.5992 35.9922 24.8883 34.6298C28.1774 33.2674 30.9886 30.9603 32.9665 28.0003C34.9443 25.0402 36 21.5601 36 18C35.9949 13.2277 34.0969 8.65225 30.7223 5.27769C27.3478 1.90314 22.7723 0.00508643 18 0ZM18 33.6893C14.8971 33.6884 11.8642 32.7674 9.28478 31.0429C6.70531 29.3183 4.69512 26.8677 3.50836 24.0007C2.32161 21.1338 2.01159 17.9793 2.61751 14.9362C3.22343 11.8931 4.71808 9.09797 6.91246 6.90425C9.10685 4.71054 11.9024 3.21675 14.9457 2.61176C17.989 2.00678 21.1434 2.31776 24.01 3.50539C26.8765 4.69302 29.3266 6.70397 31.0504 9.28396C32.7741 11.864 33.6942 14.8971 33.6942 18C33.6891 22.1603 32.0338 26.1488 29.0915 29.0901C26.1493 32.0315 22.1603 33.6855 18 33.6893Z" fill="white"/>
<path d="M10.273 14.4799H13.7076V25.4973H10.273V14.4799ZM11.9879 9C12.3811 9 12.7654 9.11659 13.0923 9.33502C13.4193 9.55346 13.6741 9.86393 13.8245 10.2272C13.975 10.5904 14.0143 10.9901 13.9376 11.3757C13.8609 11.7614 13.6716 12.1156 13.3936 12.3936C13.1156 12.6716 12.7614 12.8609 12.3757 12.9376C11.9901 13.0143 11.5904 12.975 11.2272 12.8245C10.8639 12.6741 10.5535 12.4193 10.335 12.0923C10.1166 11.7654 10 11.3811 10 10.9879C10 10.4607 10.2094 9.95505 10.5822 9.58225C10.9551 9.20944 11.4607 9 11.9879 9M15.8584 25.5117H19.2833V20.0557C19.2833 18.6186 19.5564 17.2247 21.3431 17.2247C23.1298 17.2247 23.1202 18.8677 23.1202 20.1467V25.5117H26.55V19.4617C26.55 16.4918 25.9081 14.1925 22.4353 14.1925C21.784 14.1679 21.1383 14.3207 20.5671 14.6346C19.9959 14.9484 19.5208 15.4116 19.1923 15.9745H19.1444V14.4799H15.8584V25.5117Z" fill="white"/>
</svg>
