<svg width="171" height="33" viewBox="0 0 171 33" fill="none" xmlns="http://www.w3.org/2000/svg">
    <path
        d="M50.3853 8.45993H54.5899L56.7538 15.4794C57.1056 16.7636 57.4399 18.1886 57.739 19.7192C58.0091 18.2801 58.3854 16.8629 58.8649 15.4794L61.1167 8.45993H65.2158L67.4149 15.4794C67.6084 16.1303 68.2769 18.5933 68.4704 19.684C68.7343 18.4525 69.2621 16.4997 69.5612 15.4794L71.7427 8.45993H76.0177L70.3528 24.821H66.588L64.3362 17.7312C63.6677 15.5673 63.2982 14.0192 63.1751 13.1923C62.9991 13.9488 62.7001 15.1099 61.8732 17.8016L59.6214 24.821H55.6806L50.3853 8.45993Z"
        fill="white" />
    <path
        d="M78.0054 2.72467C78.002 2.23756 78.143 1.76036 78.4108 1.35341C78.6785 0.946465 79.0609 0.62805 79.5096 0.438433C79.9583 0.248815 80.4532 0.196509 80.9316 0.28813C81.41 0.379751 81.8505 0.611184 82.1974 0.953163C82.5443 1.29514 82.782 1.73231 82.8805 2.20938C82.9789 2.68645 82.9337 3.182 82.7505 3.63336C82.5673 4.08473 82.2544 4.47164 81.8513 4.74516C81.4482 5.01869 80.9731 5.16654 80.486 5.17004C80.1619 5.1747 79.8401 5.11489 79.5394 4.99409C79.2386 4.87329 78.9649 4.6939 78.7341 4.46636C78.5032 4.23882 78.32 3.96767 78.1949 3.66867C78.0698 3.36966 78.0054 3.04878 78.0054 2.72467ZM78.4628 8.45985H82.5091V24.821H78.4628V8.45985Z"
        fill="white" />
    <path d="M96.9528 12.1368H95.4574C92.537 12.1368 90.725 13.6849 90.725 16.8692V24.821H86.6787V8.49512H90.4963L90.725 10.8701C91.4111 9.2516 92.9769 8.16086 95.1583 8.16086C95.7635 8.16538 96.3659 8.24216 96.9528 8.38956V12.1368Z" fill="white" />
    <path
        d="M98.1665 16.6405C98.1665 11.5034 101.527 7.94974 106.329 7.94974C111.132 7.94974 114.334 11.2396 114.334 16.3414V17.5553L102.019 17.5905C102.318 20.4757 103.831 21.9359 106.523 21.9359C108.74 21.9359 110.2 21.0738 110.657 19.5081H114.404C113.701 23.097 110.728 25.2433 106.453 25.2433C101.579 25.2433 98.1665 21.7071 98.1665 16.6405ZM102.125 15.0044H110.323C110.323 12.7525 108.775 11.2747 106.347 11.2747C103.919 11.2747 102.512 12.559 102.125 15.0044Z"
        fill="white" />
    <path
        d="M117.589 8.45992H121.318L121.582 10.9405C122.585 9.05807 124.731 7.94974 127.212 7.94974C131.821 7.94974 134.865 11.3099 134.865 16.4294C134.865 21.5488 132.085 25.2433 127.212 25.2433C124.767 25.2433 122.656 24.2757 121.618 22.622V32.4034H117.589V8.45992ZM126.262 21.6016C129.112 21.6016 130.801 19.5433 130.801 16.6405C130.801 13.7377 129.112 11.6266 126.262 11.6266C123.412 11.6266 121.653 13.6849 121.653 16.6405C121.653 19.596 123.482 21.6016 126.262 21.6016Z"
        fill="white" />
    <path
        d="M137.345 20.1414C137.345 17.1331 139.544 15.2507 143.415 14.9516L148.323 14.5821V14.2127C148.323 11.996 146.986 11.0988 144.928 11.0988C142.553 11.0988 141.233 12.1016 141.233 13.8257H137.785C137.785 10.272 140.705 7.94974 145.139 7.94974C149.572 7.94974 152.264 10.3423 152.264 14.8812V24.821H148.71L148.411 22.3933C147.725 24.0821 145.508 25.2433 142.957 25.2433C139.474 25.2433 137.345 23.2201 137.345 20.1414ZM148.341 18.1886V17.3266L144.928 17.5905C142.412 17.8192 141.462 18.646 141.462 19.9831C141.462 21.3201 142.447 22.1997 144.277 22.1997C146.757 22.1997 148.341 20.7044 148.341 18.1886Z"
        fill="white" />
    <path
        d="M154.34 29.0257H156.767C158.351 29.0257 159.336 28.6562 160.04 26.7386L160.497 25.5072L153.917 8.45993H158.175L162.397 20.3701L166.83 8.45993H171L162.978 28.4627C161.764 31.5062 160.04 32.7553 157.348 32.7553C156.334 32.7648 155.324 32.6466 154.34 32.4035V29.0257Z"
        fill="white" />
    <path
        d="M7.28334 2.75996L0.47501 7.58033C0.327347 7.68673 0.207215 7.82684 0.124599 7.98901C0.0419825 8.15119 -0.000730941 8.33073 9.46394e-06 8.51274V27.8646C-0.00082366 28.1895 0.0892685 28.5082 0.2601 28.7847C0.430931 29.0611 0.675689 29.2842 0.9667 29.4288C1.25771 29.5734 1.58337 29.6337 1.90686 29.6029C2.23035 29.5721 2.53876 29.4513 2.79723 29.2544L19.6685 17.6961V28.797C19.6722 29.1164 19.7629 29.4289 19.9307 29.7007C20.0985 29.9725 20.3371 30.1936 20.6211 30.34C20.905 30.4865 21.2234 30.5529 21.5422 30.5321C21.861 30.5113 22.1681 30.4041 22.4306 30.222L44.3861 14.4942C44.5384 14.387 44.6627 14.2447 44.7484 14.0794C44.8341 13.914 44.8788 13.7305 44.8787 13.5442V3.69237C44.874 3.4779 44.8109 3.26879 44.6961 3.08756C44.5814 2.90633 44.4193 2.75986 44.2274 2.66392C44.0356 2.56799 43.8212 2.52624 43.6073 2.54316C43.3935 2.56008 43.1883 2.63504 43.0139 2.75996L27.0222 14.5294V3.69237C27.0214 3.47822 26.9614 3.26846 26.8489 3.08628C26.7363 2.90411 26.5755 2.75662 26.3843 2.66012C26.1932 2.56362 25.979 2.52187 25.7656 2.53949C25.5522 2.55711 25.3478 2.63341 25.175 2.75996L9.14816 13.7553V3.69237C9.14346 3.4779 9.08032 3.26879 8.96556 3.08756C8.85079 2.90633 8.68874 2.75986 8.49687 2.66392C8.305 2.56799 8.0906 2.52624 7.87675 2.54316C7.66291 2.56008 7.45773 2.63504 7.28334 2.75996Z"
        fill="white" />
</svg>