<svg width="36" height="36" viewBox="0 0 36 36" fill="none" xmlns="http://www.w3.org/2000/svg">
    <path
        d="M27.1857 12.2017C26.5814 12.4584 25.947 12.6376 25.2978 12.7349C25.5956 12.6869 26.0327 12.1393 26.2105 11.9183C26.4854 11.5827 26.6941 11.198 26.8254 10.7846C26.8254 10.7509 26.8542 10.7125 26.8254 10.6885C26.8102 10.6791 26.7928 10.6742 26.7749 10.6742C26.7571 10.6742 26.7397 10.6791 26.7245 10.6885C26.0217 11.0664 25.2745 11.3552 24.5003 11.5484C24.4733 11.5571 24.4443 11.5577 24.4169 11.55C24.3896 11.5423 24.3651 11.5267 24.3466 11.5051C24.2846 11.4359 24.2189 11.3702 24.1496 11.3082C23.8245 11.0295 23.4562 10.8056 23.0592 10.6453C22.5364 10.4359 21.9735 10.3456 21.4115 10.381C20.8639 10.4197 20.3301 10.5705 19.8434 10.8242C19.3566 11.0779 18.9272 11.4291 18.582 11.8558C18.224 12.2979 17.9666 12.8126 17.8278 13.3642C17.7102 13.888 17.6956 14.4297 17.7846 14.9591C17.7846 15.0504 17.7846 15.0648 17.7125 15.0504C14.6572 14.5988 12.1304 13.5035 10.0792 11.1641C9.98792 11.0632 9.93988 11.0632 9.86782 11.1641C8.9695 12.5091 9.38744 14.6757 10.5259 15.7373C10.6749 15.8766 10.8286 16.0208 11.0063 16.1505C10.4924 16.1109 9.99124 15.9706 9.53155 15.7373C9.44508 15.6797 9.39704 15.7133 9.39224 15.8142C9.38624 15.9603 9.39429 16.1067 9.41626 16.2513C9.50479 16.9371 9.7738 17.5871 10.1958 18.1349C10.6178 18.6826 11.1777 19.1085 11.8182 19.369C11.9717 19.4389 12.133 19.4905 12.2986 19.5228C11.8238 19.6158 11.3369 19.6304 10.8574 19.566C10.7517 19.566 10.7133 19.5996 10.7517 19.7005C11.3858 21.4299 12.7597 21.9487 13.7878 22.2417C13.9271 22.2417 14.0616 22.2417 14.2009 22.2946L14.1769 22.3234C13.8358 22.8422 12.654 23.2265 12.1016 23.4187C11.0944 23.7797 10.0208 23.9174 8.95509 23.8222C8.78695 23.8222 8.74852 23.8222 8.70529 23.8222C8.66206 23.8222 8.70529 23.8895 8.75333 23.9375C8.9695 24.0768 9.18567 24.2017 9.40665 24.3266C10.081 24.6873 10.793 24.9725 11.5299 25.1769C15.3106 26.2193 19.5668 25.4507 22.4107 22.6308C24.6396 20.4163 25.4179 17.3466 25.4179 14.301C25.4179 14.1809 25.562 14.1136 25.6436 14.0512C26.2219 13.6155 26.7333 13.0976 27.1616 12.514C27.2314 12.4285 27.2763 12.3254 27.2914 12.2161C27.2962 12.1537 27.2625 12.1681 27.1857 12.2017Z"
        fill="white" />
    <path
        d="M18 0C14.4399 0 10.9598 1.05568 7.99974 3.03355C5.03966 5.01141 2.73255 7.82263 1.37018 11.1117C0.00779909 14.4008 -0.348661 18.02 0.345873 21.5116C1.04041 25.0033 2.75474 28.2106 5.27208 30.7279C7.78943 33.2453 10.9967 34.9596 14.4884 35.6541C17.98 36.3487 21.5992 35.9922 24.8883 34.6298C28.1774 33.2674 30.9886 30.9603 32.9665 28.0003C34.9443 25.0402 36 21.5601 36 18C35.9949 13.2277 34.0969 8.65225 30.7223 5.27769C27.3478 1.90314 22.7723 0.00508643 18 0ZM18 33.6893C14.8956 33.6903 11.8606 32.7705 9.27899 31.0464C6.69737 29.3223 4.68506 26.8712 3.49661 24.0033C2.30817 21.1354 1.99696 17.9794 2.60237 14.9346C3.20778 11.8898 4.7026 9.09291 6.89776 6.89775C9.09292 4.7026 11.8898 3.20777 14.9346 2.60237C17.9794 1.99696 21.1354 2.30816 24.0033 3.49661C26.8712 4.68505 29.3223 6.69736 31.0464 9.27899C32.7705 11.8606 33.6903 14.8956 33.6894 18C33.6843 22.1595 32.0297 26.1472 29.0884 29.0884C26.1472 32.0296 22.1595 33.6843 18 33.6893Z"
        fill="white" />
</svg>