<svg width="473" height="34" viewBox="0 0 473 34" fill="none" xmlns="http://www.w3.org/2000/svg">
<path d="M4.12205 27L0 7H2.91953L5.98265 23.0814L12.9644 7H16.1681L6.95483 27H4.12205Z" fill="#94A3B8"/>
<path d="M20.1884 11.819L15.9826 21.1639H21.7199L20.1884 11.819ZM14.804 23.7664L13.3442 27H10.4546L19.5662 7H21.9981L25.4621 27H22.6861L22.1417 23.7664H14.804Z" fill="#94A3B8"/>
<path d="M35.5403 24.3407V27H27.1855V7H30.0183V24.3407H35.5403Z" fill="#94A3B8"/>
<path d="M46.5867 11.819L42.3779 21.1639H48.1153L46.5867 11.819ZM41.2024 23.7664L39.7426 27H36.856L45.9705 7H48.4025L51.8664 27H49.0905L48.5461 23.7664H41.2024Z" fill="#94A3B8"/>
<path d="M59.5898 16.3688C62.5064 16.3688 63.5952 14.8732 63.5952 12.9946C63.5952 11.1161 62.5064 9.64433 59.5898 9.64433H56.416V16.3569H59.5779L59.5898 16.3688ZM58.157 19.0311H56.428V27H53.5952V7H60.0475C64.2354 7 66.4429 9.74604 66.4429 12.9827C66.4429 15.8723 64.696 18.367 61.3786 18.8905L68.2587 26.9671H64.8127L58.157 19.0311Z" fill="#94A3B8"/>
<path d="M116.259 27.5415H119.922V9.14379C120.132 9.05851 120.356 9.01186 120.583 9.00608C121.161 9.00608 121.34 9.44675 121.34 11.1543V27.5415H125.003V10.4245C125.027 10.0117 125.027 9.59787 125.003 9.1851C125.233 9.07847 125.48 9.01766 125.733 9.00608C126.311 9.00608 126.49 9.44675 126.49 11.1543V27.5415H130.167V10.4245C130.167 7.22965 129.148 6.21062 127.578 6.21062C127.014 6.24612 126.467 6.4206 125.987 6.71852C125.506 7.01645 125.107 7.42857 124.824 7.91819C124.717 7.38212 124.41 6.90707 123.964 6.5898C123.519 6.27254 122.97 6.13694 122.428 6.21062C121.895 6.24137 121.38 6.41649 120.938 6.71726C120.497 7.01804 120.146 7.43314 119.922 7.91819L119.522 6.38964H116.259V27.5415Z" fill="#94A3B8"/>
<path d="M139.821 13.2887C139.821 7.6565 137.824 6.21057 135.607 6.21057C133.39 6.21057 131.407 7.6565 131.407 13.2887V13.4678H134.794C134.794 10.2041 135.042 9.18505 135.483 9.18505C135.924 9.18505 136.199 10.2041 136.199 13.4678V15.1478C132.247 15.7262 131.118 17.2547 131.118 21.8679C131.118 26.729 132.137 27.8169 133.693 27.8169C134.227 27.7891 134.743 27.6152 135.185 27.3141C135.627 27.0129 135.978 26.5962 136.199 26.1093L136.585 27.5415H139.821V13.2887ZM136.185 17.6403V24.7873C135.98 24.8724 135.76 24.9191 135.538 24.925C134.96 24.925 134.781 24.1952 134.781 21.3722C134.781 18.5492 135.07 17.7505 136.185 17.6403Z" fill="#94A3B8"/>
<path d="M145.398 9.18511C146.086 9.18511 146.348 10.934 146.348 16.9931C146.348 23.0523 146.086 24.9802 145.398 24.9802C145.197 24.9769 145 24.9299 144.819 24.8425V9.33659C144.997 9.24017 145.195 9.1882 145.398 9.18511ZM144.819 33.9725V26.4674C145.042 26.8568 145.357 27.1859 145.736 27.4259C146.116 27.6659 146.548 27.8096 146.995 27.8445C148.854 27.8445 150.08 26.1094 150.08 17.062C150.08 8.0146 148.854 6.27948 146.995 6.27948C146.509 6.31251 146.043 6.4882 145.656 6.78457C145.269 7.08095 144.978 7.48484 144.819 7.94574L144.42 6.4585H141.156V34L144.819 33.9725Z" fill="#94A3B8"/>
<path d="M151.223 27.5415H154.886V0H151.223V27.5415Z" fill="#94A3B8"/>
<path d="M160.463 6.21057C157.861 6.21057 156.001 7.84929 156.001 16.9931C156.001 26.1369 157.861 27.7756 160.463 27.7756C162.653 27.7756 164.388 26.1506 164.594 20.6974V19.458H161.193V20.5184C161.097 23.7407 160.945 24.8011 160.505 24.8011C160.064 24.8011 159.788 23.1624 159.788 17.6403H164.608V14.4455C164.567 7.84929 162.653 6.21057 160.463 6.21057ZM160.463 9.18506C160.945 9.18506 161.152 10.5621 161.193 15.1065H159.747C159.775 10.5621 159.995 9.18506 160.463 9.18506Z" fill="#94A3B8"/>
<path d="M165.696 27.5415H169.359V10.3831C169.707 10.3566 170.057 10.3566 170.405 10.3831C170.906 10.3976 171.403 10.4575 171.893 10.5621V6.21057C170.667 6.21057 169.896 6.89911 169.359 8.53783L168.808 6.38959H165.696V27.5415Z" fill="#94A3B8"/>
<path d="M181.064 13.2887C181.064 7.6565 179.067 6.21057 176.85 6.21057C174.633 6.21057 172.636 7.58765 172.636 13.2887V13.4678H176.01C176.01 10.2041 176.272 9.18505 176.699 9.18505C177.126 9.18505 177.429 10.2041 177.429 13.4678V15.1478C173.476 15.7262 172.347 17.2547 172.347 21.8679C172.347 26.729 173.366 27.8169 174.922 27.8169C175.456 27.7876 175.972 27.6131 176.413 27.3121C176.855 27.0112 177.206 26.5953 177.429 26.1093L177.828 27.5415H181.064V13.2887ZM177.429 17.6403V24.7873C177.223 24.871 177.004 24.9176 176.781 24.925C176.189 24.925 176.01 24.1952 176.01 21.3722C176.01 18.5492 176.299 17.7505 177.429 17.6403Z" fill="#94A3B8"/>
<path d="M182.069 16.9931C182.069 26.0405 183.294 27.7756 185.153 27.7756C185.601 27.7407 186.033 27.597 186.412 27.357C186.791 27.117 187.106 26.788 187.329 26.3985L187.618 27.5277H190.992V0H187.329V7.87687C187.168 7.40976 186.871 7.00155 186.476 6.70464C186.081 6.40774 185.606 6.23569 185.112 6.21061C183.294 6.21061 182.069 7.94573 182.069 16.9931ZM186.751 24.9802C186.062 24.9802 185.801 23.2037 185.801 16.9931C185.801 10.7825 186.062 9.18509 186.751 9.18509C186.953 9.18818 187.152 9.24016 187.329 9.33657V24.7874C187.153 24.894 186.956 24.9599 186.751 24.9802Z" fill="#94A3B8"/>
<g clip-path="url(#clip0_12_100)">
<path d="M247.951 16.7086C247.954 16.7908 247.94 16.8729 247.91 16.9496C247.88 17.0263 247.835 17.0961 247.777 17.1546C247.72 17.2082 247.653 17.2495 247.579 17.2763C247.506 17.303 247.428 17.3145 247.35 17.3101H241.979C241.579 17.3127 241.183 17.2334 240.815 17.0772C240.099 16.7743 239.529 16.204 239.226 15.4874C239.069 15.1196 238.99 14.7236 238.993 14.3239V5.96615C238.991 5.57298 239.07 5.18368 239.226 4.82242C239.528 4.10548 240.099 3.53502 240.815 3.23263C241.183 3.07609 241.579 2.99681 241.979 2.9997H244.965C245.365 2.99681 245.761 3.07609 246.129 3.23263C246.845 3.53546 247.416 4.10578 247.719 4.82242C247.873 5.1838 247.952 5.57304 247.951 5.96615C247.954 6.04836 247.94 6.13027 247.91 6.20688C247.88 6.28348 247.835 6.35317 247.777 6.41167C247.72 6.4658 247.653 6.5078 247.58 6.5351C247.506 6.5624 247.428 6.57442 247.35 6.57043C247.186 6.57622 247.027 6.51967 246.903 6.41222C246.797 6.28835 246.742 6.129 246.749 5.96615C246.752 5.73284 246.705 5.50156 246.613 5.28717C246.527 5.07348 246.394 4.88143 246.225 4.72464C246.068 4.5567 245.876 4.42541 245.663 4.3401C245.445 4.23673 245.206 4.18361 244.965 4.18464H241.979C241.738 4.1836 241.499 4.23672 241.281 4.3401C241.063 4.42916 240.865 4.56083 240.699 4.72739C240.54 4.88858 240.415 5.07981 240.331 5.28991C240.239 5.50342 240.193 5.73373 240.195 5.96615V14.3239C240.194 14.5633 240.24 14.8006 240.331 15.0221C240.418 15.2364 240.542 15.4332 240.699 15.6033C240.872 15.7618 241.068 15.8926 241.281 15.9911C241.502 16.0828 241.739 16.1296 241.979 16.129H246.749V10.7559H244.364C244.201 10.7623 244.042 10.707 243.918 10.601C243.812 10.4773 243.756 10.3179 243.763 10.1549C243.758 10.0769 243.77 9.99887 243.797 9.92549C243.823 9.85211 243.865 9.78494 243.918 9.72805C243.977 9.67023 244.046 9.62497 244.123 9.59502C244.2 9.56508 244.281 9.55109 244.364 9.55391H247.35C247.429 9.5531 247.508 9.5681 247.581 9.59801C247.654 9.62793 247.721 9.67217 247.777 9.72813C247.833 9.7841 247.877 9.85068 247.907 9.92395C247.937 9.99723 247.952 10.0757 247.951 10.1549V16.7086ZM257.121 8.95238C257.124 9.03468 257.11 9.11669 257.08 9.1934C257.05 9.27011 257.005 9.33988 256.947 9.39845C256.827 9.49884 256.676 9.55388 256.52 9.55388C256.364 9.55388 256.213 9.49884 256.094 9.39845C255.987 9.2748 255.932 9.11539 255.938 8.95238C255.943 8.79669 255.914 8.64187 255.854 8.49819C255.793 8.35452 255.703 8.22527 255.589 8.11903C255.479 8.00559 255.346 7.91606 255.199 7.85596C255.052 7.79587 254.895 7.7665 254.736 7.76965H253.846C253.607 7.76861 253.37 7.81472 253.148 7.90533C252.93 7.99459 252.733 8.12645 252.566 8.29317C252.408 8.45436 252.282 8.6456 252.198 8.8557C252.108 9.07719 252.061 9.3145 252.063 9.55391V16.7086C252.066 16.7909 252.052 16.8729 252.021 16.9496C251.991 17.0263 251.946 17.0961 251.888 17.1546C251.831 17.2079 251.764 17.2492 251.691 17.2759C251.618 17.3027 251.541 17.3143 251.463 17.3101C251.381 17.3199 251.299 17.3112 251.221 17.2845C251.143 17.2578 251.073 17.2138 251.015 17.1559C250.957 17.098 250.912 17.0277 250.885 16.9502C250.858 16.8727 250.849 16.7901 250.859 16.7086V7.16867C250.854 7.0907 250.866 7.01267 250.892 6.9393C250.919 6.86593 250.961 6.79875 251.014 6.74183C251.073 6.68409 251.143 6.63909 251.221 6.60961C251.298 6.58013 251.38 6.56679 251.463 6.57043C251.542 6.56962 251.621 6.58461 251.694 6.61452C251.767 6.64443 251.834 6.68866 251.89 6.74462C251.946 6.80058 251.99 6.86715 252.02 6.94043C252.05 7.01372 252.065 7.09224 252.064 7.17141V7.76965C252.341 7.4024 252.699 7.10466 253.111 6.90004C253.522 6.68083 253.982 6.56755 254.449 6.57043H254.74C255.054 6.56837 255.365 6.63453 255.651 6.76435C255.942 6.8763 256.206 7.048 256.426 7.26838C256.647 7.48876 256.818 7.75291 256.93 8.04377C257.059 8.32936 257.124 8.63931 257.121 8.95238ZM266.81 14.9248C266.814 15.245 266.748 15.5622 266.616 15.8543C266.501 16.1377 266.33 16.395 266.113 16.6108C265.89 16.8327 265.626 17.0103 265.337 17.1343C265.048 17.2519 264.739 17.3116 264.427 17.3101H261.439C261.121 17.3134 260.805 17.2541 260.509 17.1354C259.941 16.8781 259.486 16.4232 259.229 15.8554C259.11 15.5597 259.051 15.2435 259.054 14.9248V8.95238C259.052 8.64008 259.111 8.33042 259.229 8.04102C259.35 7.75561 259.528 7.49811 259.752 7.28458C259.971 7.0657 260.227 6.88831 260.509 6.76105C260.802 6.63095 261.119 6.56591 261.439 6.57043H264.427C264.742 6.56837 265.053 6.63453 265.339 6.76435C265.627 6.88751 265.89 7.06401 266.113 7.28458C266.335 7.49558 266.507 7.75392 266.616 8.04047C266.746 8.32665 266.812 8.63759 266.81 8.95183V11.9381C266.813 12.0204 266.799 12.1024 266.769 12.1791C266.739 12.2558 266.694 12.3256 266.636 12.3841C266.579 12.4374 266.512 12.4786 266.439 12.5052C266.365 12.5318 266.287 12.5433 266.209 12.539H260.257V14.9243C260.249 15.2411 260.368 15.548 260.586 15.7774C260.697 15.8913 260.83 15.9813 260.976 16.0418C261.123 16.1023 261.281 16.132 261.439 16.129H264.427C264.583 16.1332 264.738 16.1043 264.882 16.0442C265.025 15.9841 265.154 15.8941 265.261 15.7802C265.374 15.6694 265.464 15.5366 265.524 15.3898C265.584 15.2431 265.613 15.0856 265.61 14.927C265.606 14.8492 265.617 14.7713 265.644 14.698C265.67 14.6247 265.712 14.5576 265.765 14.5007C265.823 14.4428 265.893 14.3973 265.97 14.3673C266.047 14.3373 266.129 14.3232 266.211 14.3261C266.29 14.3253 266.369 14.3404 266.442 14.3703C266.515 14.4002 266.582 14.4445 266.638 14.5004C266.694 14.5564 266.738 14.6229 266.768 14.6962C266.798 14.7694 266.813 14.8479 266.812 14.927L266.81 14.9248ZM265.608 8.95238C265.606 8.63983 265.48 8.34082 265.26 8.11965C265.039 7.89847 264.74 7.7728 264.427 7.76965H261.439C261.281 7.76643 261.123 7.79578 260.977 7.85587C260.83 7.91597 260.697 8.00553 260.586 8.11903C260.477 8.22812 260.392 8.35832 260.335 8.50163C260.279 8.64495 260.252 8.79834 260.257 8.95238V11.3569H265.608V8.95238ZM277.466 14.9248C277.469 15.245 277.403 15.5622 277.272 15.8543C277.157 16.1378 276.985 16.3951 276.768 16.6108C276.545 16.8328 276.282 17.0105 275.993 17.1343C275.703 17.2517 275.394 17.311 275.081 17.309H272.095C271.776 17.3123 271.46 17.253 271.164 17.1343C270.597 16.877 270.142 16.4221 269.884 15.8543C269.766 15.5586 269.706 15.2424 269.71 14.9237V8.95238C269.708 8.64008 269.767 8.33042 269.884 8.04102C270.005 7.75561 270.183 7.49811 270.408 7.28458C270.626 7.0657 270.883 6.88831 271.164 6.76105C271.457 6.63095 271.775 6.56591 272.095 6.57043H275.081C275.396 6.56837 275.706 6.63453 275.993 6.76435C276.282 6.8872 276.545 7.06373 276.768 7.28458C276.991 7.49542 277.163 7.75381 277.272 8.04047C277.402 8.32665 277.468 8.63759 277.466 8.95183V11.9381C277.469 12.0204 277.455 12.1024 277.425 12.1791C277.395 12.2558 277.35 12.3256 277.292 12.3841C277.235 12.4374 277.168 12.4786 277.094 12.5053C277.021 12.5319 276.943 12.5434 276.865 12.539H270.912V14.9243C270.905 15.2411 271.023 15.548 271.242 15.7774C271.352 15.8913 271.485 15.9813 271.632 16.0418C271.779 16.1023 271.936 16.132 272.095 16.129H275.081C275.237 16.1333 275.392 16.1045 275.536 16.0443C275.68 15.9842 275.809 15.8941 275.915 15.7802C276.028 15.6693 276.118 15.5364 276.178 15.3897C276.238 15.243 276.267 15.0855 276.264 14.927C276.26 14.8492 276.271 14.7713 276.298 14.698C276.324 14.6247 276.366 14.5576 276.419 14.5007C276.477 14.4428 276.547 14.3973 276.624 14.3673C276.701 14.3373 276.783 14.3232 276.865 14.3261C276.944 14.3253 277.023 14.3404 277.096 14.3703C277.169 14.4002 277.236 14.4445 277.292 14.5004C277.348 14.5564 277.392 14.6229 277.422 14.6962C277.452 14.7694 277.467 14.8479 277.466 14.927V14.9248ZM276.264 8.95238C276.262 8.63946 276.136 8.34004 275.915 8.11876C275.694 7.89748 275.394 7.77209 275.081 7.76965H272.095C271.937 7.76643 271.779 7.79578 271.632 7.85587C271.486 7.91597 271.353 8.00553 271.242 8.11903C271.133 8.22812 271.048 8.35832 270.991 8.50163C270.934 8.64495 270.908 8.79834 270.912 8.95238V11.3569H276.264V8.95238ZM288.122 16.7086C288.124 16.7908 288.111 16.8729 288.081 16.9496C288.051 17.0263 288.005 17.0961 287.947 17.1546C287.891 17.2082 287.823 17.2495 287.75 17.2763C287.677 17.303 287.599 17.3145 287.521 17.3101C287.439 17.3195 287.357 17.3104 287.28 17.2835C287.203 17.2566 287.132 17.2126 287.075 17.1547C287.017 17.0968 286.973 17.0267 286.946 16.9494C286.919 16.8721 286.91 16.7898 286.92 16.7086V8.95238C286.917 8.63946 286.792 8.34004 286.57 8.11876C286.349 7.89748 286.05 7.77209 285.737 7.76965H283.352C283.112 7.76861 282.875 7.81472 282.654 7.90533C282.436 7.99459 282.238 8.12645 282.072 8.29317C281.913 8.45431 281.788 8.64555 281.704 8.8557C281.612 9.07712 281.566 9.31442 281.567 9.55391V16.7086C281.57 16.7909 281.556 16.8729 281.526 16.9496C281.496 17.0263 281.45 17.0961 281.392 17.1546C281.335 17.2081 281.268 17.2495 281.195 17.2762C281.122 17.3029 281.044 17.3145 280.966 17.3101C280.884 17.3199 280.802 17.3112 280.724 17.2845C280.646 17.2578 280.576 17.2138 280.518 17.1559C280.46 17.098 280.415 17.0277 280.388 16.9502C280.361 16.8727 280.352 16.7901 280.362 16.7086V7.16867C280.358 7.09029 280.371 7.01204 280.398 6.93866C280.426 6.86529 280.469 6.79832 280.523 6.74183C280.582 6.68471 280.651 6.64006 280.727 6.6106C280.804 6.58114 280.885 6.56747 280.967 6.57043C281.046 6.56985 281.124 6.58491 281.197 6.61475C281.27 6.64459 281.336 6.6886 281.392 6.74425C281.448 6.7999 281.492 6.86606 281.522 6.93892C281.552 7.01177 281.567 7.08986 281.567 7.16867V7.76965C281.844 7.40233 282.203 7.10459 282.615 6.90004C283.027 6.68076 283.487 6.56748 283.953 6.57043H285.737C286.051 6.56837 286.362 6.63453 286.648 6.76435C286.939 6.87638 287.203 7.04811 287.424 7.26847C287.644 7.48883 287.816 7.75294 287.928 8.04377C288.058 8.33007 288.124 8.64096 288.122 8.95513V16.7086ZM299.98 16.7283C299.984 16.8079 299.97 16.8873 299.94 16.961C299.91 17.0347 299.864 17.1008 299.805 17.1546C299.748 17.2081 299.681 17.2495 299.608 17.2762C299.535 17.3029 299.457 17.3145 299.379 17.3101C299.216 17.3166 299.056 17.261 298.933 17.1546C298.879 17.0978 298.838 17.0307 298.811 16.9574C298.785 16.8841 298.773 16.8062 298.777 16.7283V10.7559H292.224V16.7283C292.228 16.8079 292.215 16.8873 292.184 16.961C292.154 17.0347 292.108 17.1008 292.049 17.1546C291.993 17.2081 291.926 17.2495 291.852 17.2762C291.779 17.3029 291.701 17.3145 291.623 17.3101C291.46 17.3166 291.301 17.261 291.177 17.1546C291.124 17.0977 291.082 17.0306 291.056 16.9574C291.029 16.8841 291.018 16.8062 291.022 16.7283V3.59904C291.018 3.5212 291.029 3.44328 291.056 3.37001C291.082 3.29674 291.124 3.22963 291.177 3.17275C291.236 3.11513 291.305 3.07006 291.382 3.04031C291.459 3.01055 291.54 2.99674 291.623 2.9997C291.702 2.99562 291.782 3.00916 291.855 3.03936C291.929 3.06956 291.995 3.11567 292.049 3.17439C292.108 3.22814 292.154 3.29423 292.184 3.36793C292.214 3.44162 292.228 3.52111 292.224 3.60068V9.55391H298.778V3.60068C298.773 3.52281 298.785 3.44488 298.812 3.37161C298.838 3.29834 298.88 3.23125 298.933 3.17439C298.992 3.11648 299.061 3.07111 299.138 3.04107C299.215 3.01103 299.296 2.99695 299.379 2.9997C299.458 2.99562 299.538 3.00916 299.611 3.03936C299.685 3.06956 299.751 3.11567 299.805 3.17439C299.864 3.22819 299.91 3.2943 299.94 3.368C299.97 3.44169 299.984 3.52115 299.98 3.60068V16.7283ZM310.645 14.3239C310.648 14.7235 310.569 15.1195 310.412 15.4874C310.109 16.2037 309.539 16.7739 308.822 17.0772C308.455 17.2332 308.06 17.3125 307.661 17.3101H305.876C305.477 17.3127 305.081 17.2334 304.713 17.0772C303.996 16.7747 303.424 16.2044 303.12 15.4874C302.964 15.1195 302.885 14.7235 302.888 14.3239V9.55391C302.885 9.15428 302.964 8.7583 303.12 8.3904C303.424 7.67304 303.995 7.10246 304.713 6.80006C305.081 6.64512 305.476 6.56698 305.875 6.57043H307.661C308.06 6.56761 308.456 6.6467 308.824 6.8028C309.541 7.10606 310.111 7.6765 310.414 8.39315C310.57 8.76101 310.649 9.15699 310.647 9.55666L310.645 14.3239ZM309.443 9.55391C309.444 9.31461 309.399 9.07731 309.309 8.8557C309.222 8.64201 309.09 8.44996 308.921 8.29317C308.764 8.12408 308.572 7.99164 308.359 7.90533C308.137 7.81472 307.9 7.76861 307.661 7.76965H305.876C305.637 7.76861 305.4 7.81472 305.179 7.90533C304.961 7.99459 304.763 8.12645 304.597 8.29317C304.438 8.45431 304.313 8.64555 304.228 8.8557C304.137 9.07719 304.091 9.3145 304.093 9.55391V14.3239C304.091 14.5633 304.137 14.8006 304.228 15.0221C304.315 15.2364 304.44 15.4333 304.597 15.6033C304.77 15.7618 304.966 15.8926 305.179 15.9911C305.4 16.0819 305.637 16.128 305.876 16.1268H307.661C307.9 16.1281 308.137 16.082 308.359 15.9911C308.567 15.8957 308.758 15.7644 308.921 15.6033C309.088 15.4374 309.22 15.2398 309.309 15.0221C309.4 14.8006 309.446 14.5633 309.444 14.3239L309.443 9.55391ZM321.301 16.7086C321.304 16.7909 321.29 16.8729 321.26 16.9496C321.229 17.0263 321.184 17.0961 321.126 17.1546C321.069 17.2081 321.002 17.2495 320.929 17.2762C320.856 17.3029 320.778 17.3145 320.7 17.3101C320.619 17.3195 320.536 17.3104 320.459 17.2835C320.382 17.2566 320.311 17.2126 320.254 17.1547C320.196 17.0969 320.152 17.0267 320.125 16.9494C320.098 16.8722 320.089 16.7898 320.098 16.7086V16.129C319.821 16.4985 319.46 16.7978 319.046 17.0029C318.632 17.2081 318.176 17.3132 317.714 17.3101H315.929C315.611 17.3133 315.294 17.254 314.999 17.1354C314.431 16.8781 313.976 16.4232 313.719 15.8554C313.601 15.5596 313.541 15.2434 313.545 14.9248V7.16867C313.54 7.09075 313.552 7.01276 313.578 6.93941C313.605 6.86606 313.646 6.79885 313.7 6.74183C313.758 6.68394 313.828 6.63863 313.905 6.60869C313.981 6.57874 314.063 6.56479 314.146 6.56768C314.225 6.5668 314.303 6.58174 314.377 6.61162C314.45 6.64151 314.517 6.68573 314.573 6.74171C314.629 6.79768 314.673 6.86428 314.703 6.9376C314.733 7.01091 314.748 7.08947 314.747 7.16867V14.9248C314.74 15.2417 314.858 15.5485 315.077 15.778C315.188 15.8913 315.32 15.9807 315.467 16.0407C315.614 16.1007 315.771 16.13 315.93 16.1268H318.315C318.555 16.1281 318.792 16.082 319.013 15.9911C319.222 15.8957 319.412 15.7644 319.575 15.6033C319.742 15.4376 319.874 15.2399 319.963 15.0221C320.054 14.8006 320.1 14.5633 320.099 14.3239V7.16867C320.094 7.0907 320.106 7.01267 320.133 6.9393C320.159 6.86593 320.201 6.79875 320.254 6.74183C320.313 6.68394 320.383 6.63863 320.459 6.60869C320.536 6.57874 320.618 6.56479 320.7 6.56768C320.779 6.56695 320.858 6.582 320.931 6.61194C321.004 6.64188 321.071 6.68612 321.127 6.74207C321.183 6.79803 321.227 6.86457 321.257 6.93782C321.287 7.01106 321.302 7.08954 321.301 7.16867L321.301 16.7086ZM331.958 14.9248C331.961 15.2454 331.895 15.5628 331.764 15.8554C331.648 16.1388 331.477 16.3961 331.26 16.6119C331.037 16.834 330.774 17.0117 330.484 17.1354C330.195 17.2529 329.885 17.3122 329.573 17.3101H326.585C326.266 17.3137 325.948 17.2544 325.652 17.1354C325.084 16.8779 324.629 16.423 324.372 15.8554C324.253 15.5597 324.194 15.2435 324.197 14.9248C324.193 14.847 324.205 14.7691 324.231 14.6958C324.258 14.6225 324.299 14.5554 324.352 14.4985C324.411 14.4406 324.481 14.3952 324.557 14.3651C324.634 14.3351 324.716 14.321 324.798 14.3239C324.878 14.3225 324.957 14.337 325.031 14.3667C325.105 14.3963 325.172 14.4404 325.228 14.4965C325.285 14.5525 325.329 14.6192 325.36 14.6928C325.39 14.7664 325.405 14.8453 325.404 14.9248C325.397 15.0822 325.422 15.2394 325.479 15.3863C325.536 15.5333 325.623 15.6667 325.734 15.7781C325.846 15.8895 325.979 15.9763 326.126 16.0331C326.273 16.0898 326.43 16.1152 326.588 16.1076H329.573C329.727 16.1124 329.881 16.0857 330.024 16.029C330.168 15.9723 330.298 15.8869 330.407 15.778C330.521 15.6672 330.61 15.5343 330.67 15.3876C330.73 15.2408 330.759 15.0833 330.756 14.9248V14.0327C330.759 13.7564 330.663 13.4881 330.485 13.2768C330.325 13.0622 330.089 12.9166 329.825 12.8697L326.103 12.1908C325.56 12.0954 325.071 11.806 324.726 11.3766C324.383 10.9402 324.198 10.3998 324.202 9.84451V8.95238C324.2 8.64008 324.26 8.33042 324.377 8.04102C324.501 7.75182 324.679 7.48878 324.901 7.2659C325.116 7.04875 325.373 6.87724 325.657 6.7616C325.95 6.63003 326.269 6.56386 326.59 6.56768H329.576C329.89 6.56552 330.201 6.63168 330.487 6.7616C330.778 6.87363 331.042 7.04536 331.263 7.26573C331.483 7.48609 331.655 7.75019 331.767 8.04102C331.897 8.32729 331.963 8.63817 331.961 8.95238C331.964 9.03471 331.95 9.11676 331.92 9.19346C331.89 9.27017 331.845 9.33993 331.787 9.39845C331.73 9.45183 331.663 9.49314 331.589 9.51986C331.516 9.54658 331.438 9.55816 331.36 9.55391C331.197 9.56015 331.038 9.50463 330.914 9.39845C330.808 9.27466 330.753 9.11535 330.759 8.95238C330.756 8.63946 330.631 8.34004 330.41 8.11876C330.188 7.89748 329.889 7.77209 329.576 7.76965H326.585C326.427 7.76679 326.27 7.7963 326.124 7.85638C325.977 7.91647 325.845 8.00584 325.734 8.11903C325.625 8.22812 325.54 8.35832 325.483 8.50163C325.426 8.64495 325.4 8.79834 325.404 8.95238V9.84451C325.4 10.1179 325.489 10.3846 325.657 10.601C325.829 10.8152 326.068 10.9653 326.335 11.0272L330.058 11.6865C330.329 11.7378 330.586 11.8434 330.814 11.9968C331.044 12.1355 331.249 12.3126 331.419 12.5204C331.587 12.7288 331.719 12.9651 331.806 13.2186C331.91 13.4775 331.962 13.7539 331.961 14.0327L331.958 14.9248ZM342.615 14.9248C342.618 15.2454 342.552 15.5628 342.421 15.8554C342.306 16.1388 342.134 16.3961 341.917 16.6119C341.694 16.834 341.431 17.0117 341.141 17.1354C340.852 17.2529 340.542 17.3122 340.23 17.3101H337.244C336.925 17.3137 336.607 17.2544 336.31 17.1354C335.743 16.8779 335.288 16.423 335.031 15.8554C334.912 15.5597 334.853 15.2435 334.856 14.9248V8.95238C334.854 8.64008 334.914 8.33042 335.031 8.04102C335.152 7.75566 335.33 7.49817 335.554 7.28458C335.772 7.06583 336.028 6.88846 336.31 6.76105C336.603 6.62948 336.922 6.56331 337.244 6.56714H340.229C340.544 6.56497 340.855 6.63113 341.141 6.76105C341.429 6.88505 341.692 7.06271 341.914 7.28458C342.136 7.49555 342.309 7.75389 342.418 8.04047C342.548 8.32674 342.614 8.63762 342.612 8.95183V11.9381C342.615 12.0204 342.601 12.1024 342.571 12.1791C342.541 12.2559 342.495 12.3256 342.437 12.3841C342.38 12.4374 342.313 12.4787 342.24 12.5053C342.167 12.5319 342.089 12.5434 342.011 12.539H336.058V14.9243C336.054 15.0812 336.081 15.2373 336.138 15.3837C336.194 15.5301 336.279 15.6639 336.387 15.7774C336.498 15.8908 336.631 15.9803 336.778 16.0403C336.924 16.1003 337.082 16.1296 337.24 16.1262H340.226C340.382 16.1306 340.537 16.1017 340.681 16.0416C340.824 15.9814 340.954 15.8914 341.06 15.7774C341.174 15.6667 341.263 15.5338 341.323 15.3871C341.383 15.2403 341.413 15.0828 341.409 14.9243C341.405 14.8464 341.417 14.7685 341.443 14.6953C341.47 14.622 341.511 14.5549 341.564 14.498C341.623 14.44 341.693 14.3946 341.769 14.3646C341.846 14.3345 341.928 14.3205 342.01 14.3233C342.09 14.3227 342.168 14.3379 342.241 14.3679C342.314 14.3979 342.381 14.4421 342.437 14.498C342.493 14.5539 342.537 14.6204 342.567 14.6936C342.597 14.7668 342.612 14.8452 342.611 14.9243L342.615 14.9248ZM341.413 8.95238C341.411 8.63945 341.285 8.34012 341.064 8.11888C340.842 7.89765 340.543 7.77223 340.23 7.76965H337.244C337.086 7.76643 336.928 7.79578 336.782 7.85587C336.635 7.91597 336.502 8.00553 336.391 8.11903C336.282 8.22804 336.197 8.35823 336.14 8.50156C336.083 8.64489 336.057 8.79832 336.062 8.95238V11.3569H341.414L341.413 8.95238Z" fill="#94A3B8"/>
<path d="M297.599 27.5062C297.596 26.6637 297.894 25.8479 298.439 25.2055C298.719 24.8746 299.068 24.6082 299.46 24.4244C299.886 24.2215 300.354 24.1201 300.825 24.1283C301.43 24.1283 301.949 24.2683 302.381 24.5485C302.797 24.8031 303.131 25.1706 303.346 25.6082L302.668 26.0477C302.555 25.8003 302.392 25.5797 302.188 25.4003C301.984 25.221 301.744 25.087 301.484 25.0072C301.258 24.9387 301.023 24.9034 300.787 24.9023C300.439 24.8959 300.095 24.9745 299.785 25.1314C299.502 25.2812 299.255 25.4896 299.059 25.7428C298.86 26.0006 298.709 26.2914 298.61 26.602C298.516 26.9081 298.468 27.2265 298.468 27.5468C298.467 27.8915 298.525 28.2337 298.64 28.5587C298.753 28.8716 298.921 29.1624 299.134 29.4179C299.34 29.663 299.594 29.8644 299.879 30.0101C300.168 30.157 300.488 30.2323 300.813 30.2298C301.33 30.2245 301.831 30.0464 302.235 29.7239C302.458 29.5376 302.634 29.3024 302.75 29.0366L303.464 29.4283C303.325 29.7653 303.102 30.0611 302.816 30.2875C302.522 30.523 302.189 30.704 301.832 30.822C301.492 30.9402 301.133 31.0015 300.773 31.0033C300.329 31.0081 299.89 30.9066 299.494 30.7072C299.109 30.5063 298.765 30.2341 298.482 29.9052C298.202 29.5685 297.979 29.1881 297.823 28.779C297.674 28.3712 297.598 27.9403 297.599 27.5062ZM307.564 24.1651H308.289L311.057 30.9429H310.141L309.339 28.957H306.495L305.702 30.9429H304.786L307.564 24.1651ZM309.149 28.289L307.926 25.1577L306.667 28.289H309.149ZM313.012 30.9429V24.1651H315.838C316.123 24.1618 316.404 24.2272 316.659 24.3557C316.906 24.4755 317.127 24.6436 317.308 24.8501C317.493 25.0539 317.638 25.29 317.737 25.5467C317.838 25.7954 317.89 26.0612 317.89 26.3295C317.891 26.6977 317.806 27.061 317.642 27.3908C317.482 27.716 317.242 27.9953 316.944 28.2027C316.634 28.4098 316.267 28.5164 315.894 28.5082H313.87V30.9429H313.012ZM313.871 27.7446H315.849C316.068 27.7498 316.283 27.6828 316.46 27.554C316.641 27.4228 316.783 27.2444 316.871 27.0381C316.973 26.8169 317.026 26.5756 317.023 26.3317C317.027 26.0829 316.968 25.8373 316.851 25.6175C316.748 25.4133 316.593 25.2391 316.403 25.1116C316.222 24.9918 316.009 24.9287 315.792 24.9303H313.873L313.871 27.7446ZM320.01 30.9429V24.1651H320.869V30.9429H320.01ZM328.426 24.9287H326.087V30.9429H325.228V24.9287H322.889V24.1651H328.426V24.9287ZM331.87 24.1651H332.601L335.369 30.9429H334.452L333.65 28.957H330.806L330.014 30.9429H329.097L331.87 24.1651ZM333.455 28.289L332.233 25.1577L330.973 28.289H333.455ZM337.319 30.9429V24.1651H338.178V30.1787H341.959V30.9429H337.319Z" fill="#94A3B8"/>
</g>
<path d="M399.744 9.08705C399.619 9.08675 399.496 9.06159 399.382 9.01305C399.267 8.9645 399.163 8.89355 399.076 8.80435C398.989 8.71515 398.921 8.6095 398.876 8.4936C398.83 8.37771 398.808 8.2539 398.811 8.12944V7.49943C398.81 7.24937 398.907 7.0088 399.082 6.82964C399.256 6.65048 399.494 6.54709 399.744 6.54181H402.97C403.094 6.5421 403.217 6.56727 403.332 6.61581C403.446 6.66436 403.55 6.73532 403.637 6.82452C403.724 6.91372 403.792 7.01936 403.838 7.13526C403.883 7.25115 403.905 7.37497 403.902 7.49943V8.12944C403.903 8.3795 403.806 8.62007 403.632 8.79923C403.457 8.97839 403.22 9.08176 402.97 9.08705H399.744ZM392.083 27.9622C391.958 27.9619 391.835 27.9367 391.721 27.8882C391.606 27.8396 391.502 27.7687 391.415 27.6795C391.328 27.5903 391.26 27.4846 391.215 27.3688C391.169 27.2529 391.147 27.129 391.15 27.0046V26.3746C391.149 26.1245 391.246 25.8839 391.421 25.7048C391.595 25.5256 391.833 25.4222 392.083 25.417H395.309C395.433 25.4173 395.556 25.4424 395.671 25.491C395.786 25.5395 395.889 25.6105 395.976 25.6997C396.063 25.7889 396.131 25.8945 396.177 26.0104C396.222 26.1263 396.244 26.2501 396.241 26.3746V27.0046C396.242 27.2546 396.145 27.4952 395.971 27.6744C395.796 27.8535 395.559 27.9569 395.309 27.9622H392.083ZM399.945 15.7148C399.341 15.5132 398.711 15.362 398.106 15.2108C396.039 14.7572 395.586 14.6312 394.502 14.0011C394.184 13.8324 393.906 13.5961 393.688 13.3088C393.471 13.0215 393.318 12.6902 393.242 12.3379C393.091 11.5063 393.192 10.5739 393.721 9.89347C393.806 9.78651 393.899 9.68547 393.998 9.59106C394.346 9.32886 394.739 9.13244 395.157 9.01146C395.49 8.94696 395.827 8.90487 396.165 8.88545C396.346 8.87654 396.522 8.82616 396.679 8.73824C396.837 8.65032 396.972 8.52722 397.075 8.37851C397.177 8.2298 397.244 8.05949 397.27 7.8808C397.296 7.70212 397.28 7.51987 397.224 7.34822C397.124 7.07996 396.94 6.85136 396.699 6.69682C396.458 6.54229 396.174 6.4702 395.888 6.49141L395.233 6.54181C395.039 6.54608 394.845 6.56292 394.653 6.59221C394.415 6.63911 394.18 6.69799 393.948 6.76862C392.863 7.16558 391.948 7.92142 391.352 8.91066C390.268 10.7251 390.344 13.3711 391.781 14.984C393.419 16.7984 396.115 17.1764 398.358 17.7812C399.366 18.0584 400.475 18.3608 401.281 19.0412C401.856 19.5538 402.216 20.265 402.289 21.0321C402.456 21.9564 402.323 22.9098 401.911 23.7537C401.654 24.2327 401.282 24.6399 400.827 24.9381C400.643 25.0621 400.449 25.1717 400.248 25.2658C399.924 25.388 399.585 25.4643 399.24 25.4926C399.189 25.4926 399.013 25.5178 398.963 25.5178L398.459 25.543C398.299 25.5509 398.143 25.5907 397.999 25.66C397.855 25.7293 397.726 25.8267 397.621 25.9465C397.515 26.0663 397.434 26.206 397.384 26.3574C397.333 26.5088 397.313 26.6689 397.325 26.8282C397.357 27.1489 397.51 27.4453 397.754 27.6562C397.998 27.8672 398.313 27.9767 398.635 27.9622L399.492 27.9118C400.575 27.8362 402.44 27.2818 403.474 26.1226C405.036 24.3837 405.212 21.6369 404.482 19.4948C403.826 17.4284 401.962 16.37 399.945 15.7148ZM408.211 6.51661C407.877 6.51661 407.557 6.64936 407.32 6.88566C407.084 7.12196 406.951 7.44246 406.951 7.77663C406.951 8.11081 407.084 8.4313 407.32 8.6676C407.557 8.9039 407.877 9.03666 408.211 9.03666H411.916C411.975 9.03632 412.034 9.04783 412.09 9.0705C412.145 9.09318 412.195 9.12658 412.237 9.16877C412.279 9.21095 412.313 9.26109 412.335 9.31628C412.358 9.37146 412.37 9.4306 412.369 9.49026V26.7274C412.369 27.0572 412.499 27.374 412.729 27.6096C412.96 27.8451 413.274 27.9808 413.604 27.9874C413.768 27.9864 413.93 27.953 414.081 27.889C414.232 27.825 414.369 27.7318 414.484 27.6146C414.599 27.4975 414.689 27.3588 414.75 27.2065C414.811 27.0542 414.841 26.8914 414.839 26.7274V9.49026C414.839 9.4306 414.85 9.37146 414.873 9.31628C414.895 9.26109 414.929 9.21095 414.971 9.16877C415.013 9.12658 415.063 9.09318 415.119 9.0705C415.174 9.04783 415.233 9.03632 415.293 9.03666H418.997C419.331 9.03666 419.652 8.9039 419.888 8.6676C420.124 8.4313 420.257 8.11081 420.257 7.77663C420.257 7.44246 420.124 7.12196 419.888 6.88566C419.652 6.64936 419.331 6.51661 418.997 6.51661H408.211ZM444.374 13.9759C443.825 13.729 443.355 13.3368 443.013 12.8419C442.383 11.8591 442.559 10.2715 443.315 9.38946C443.765 8.92111 444.36 8.61906 445.004 8.53265C445.488 8.46978 445.977 8.4445 446.465 8.45704C447.499 8.45704 448.809 8.48224 449.868 8.48224C450.077 8.48401 450.283 8.43271 450.468 8.33315C450.652 8.2336 450.808 8.08901 450.921 7.91289C451.034 7.73676 451.101 7.53483 451.115 7.32593C451.129 7.11703 451.09 6.90796 451.002 6.71821C450.724 6.1386 450.145 6.0126 449.565 6.0126C448.381 6.0126 445.634 5.9622 444.727 6.063C443.82 6.17179 442.959 6.51969 442.232 7.07102C440.795 8.12944 440.115 9.81787 440.165 11.5819C440.172 12.3231 440.351 13.0526 440.688 13.7129C441.024 14.3732 441.51 14.9464 442.106 15.3872C443.618 16.5212 445.483 17 447.247 17.6048C448.532 18.0332 450.145 18.6128 450.699 19.9737C451.254 21.2841 451.027 23.1741 450.12 24.2577C449.59 24.8877 448.759 25.3666 448.154 25.417C447.852 25.4422 447.297 25.4674 446.995 25.4674C445.81 25.4674 444.046 25.4421 442.862 25.4421C442.307 25.4421 441.778 25.5934 441.526 26.1478C441.443 26.3379 441.408 26.5456 441.425 26.7524C441.442 26.9592 441.509 27.1588 441.621 27.3333C441.733 27.5078 441.887 27.652 442.068 27.7529C442.249 27.8538 442.453 27.9084 442.66 27.9118C443.668 27.937 444.979 27.937 445.987 27.937H447.801C448.389 27.9202 448.968 27.8008 449.515 27.5842C450.316 27.287 451.044 26.8201 451.649 26.2155C452.254 25.611 452.72 24.883 453.018 24.0813C453.597 22.4937 453.648 20.5281 452.992 18.9656C452.388 17.5544 451.178 16.622 449.817 15.992C448.988 15.6247 448.138 15.305 447.272 15.0344C446.273 14.7806 445.302 14.426 444.374 13.9759ZM470.33 15.9416C470.327 16.0542 470.281 16.1613 470.201 16.241C470.122 16.3207 470.015 16.3668 469.902 16.37H461.939C461.826 16.3668 461.719 16.3207 461.639 16.241C461.56 16.1613 461.513 16.0542 461.51 15.9416V7.78923C461.506 7.46054 461.376 7.14598 461.146 6.91121C460.916 6.67643 460.604 6.53958 460.275 6.52921C460.111 6.53019 459.949 6.56364 459.798 6.62762C459.647 6.6916 459.51 6.78485 459.395 6.90199C459.281 7.01913 459.19 7.15784 459.129 7.31012C459.068 7.4624 459.038 7.62524 459.041 7.78923V26.74C459.04 27.0698 459.17 27.3866 459.401 27.6222C459.632 27.8577 459.946 27.9934 460.275 28C460.439 27.999 460.602 27.9656 460.753 27.9016C460.904 27.8376 461.04 27.7444 461.155 27.6272C461.27 27.5101 461.361 27.3714 461.421 27.2191C461.482 27.0668 461.513 26.904 461.51 26.74V19.2554C461.513 19.1428 461.56 19.0357 461.639 18.956C461.719 18.8764 461.826 18.8302 461.939 18.827H469.902C470.015 18.8302 470.122 18.8764 470.201 18.956C470.281 19.0357 470.327 19.1428 470.33 19.2554V26.7148C470.33 27.0446 470.46 27.3614 470.69 27.597C470.921 27.8325 471.235 27.9682 471.565 27.9748C471.729 27.9738 471.891 27.9404 472.042 27.8764C472.193 27.8124 472.33 27.7192 472.445 27.602C472.56 27.4849 472.65 27.3462 472.711 27.1939C472.772 27.0416 472.802 26.8788 472.8 26.7148V7.78923C472.8 7.45937 472.671 7.14264 472.44 6.90705C472.209 6.67147 471.895 6.53581 471.565 6.52921C471.401 6.53019 471.239 6.56364 471.088 6.62762C470.937 6.6916 470.8 6.78485 470.685 6.90199C470.57 7.01913 470.48 7.15784 470.419 7.31012C470.358 7.4624 470.328 7.62524 470.33 7.78923V15.9542V15.9416ZM430.362 6.84421C430.276 6.60605 430.119 6.39997 429.912 6.25359C429.706 6.1072 429.459 6.02751 429.206 6.0252H429.13C428.875 6.02794 428.627 6.10923 428.419 6.25802C428.212 6.40682 428.055 6.6159 427.971 6.85681L421.343 25.8076C421.289 25.9614 421.265 26.1246 421.273 26.2876C421.282 26.4507 421.322 26.6105 421.392 26.758C421.463 26.9054 421.561 27.0375 421.682 27.1469C421.804 27.2562 421.945 27.3406 422.099 27.3952C422.253 27.4498 422.416 27.4735 422.579 27.4651C422.742 27.4567 422.902 27.4162 423.05 27.346C423.197 27.2758 423.329 27.1772 423.438 27.056C423.548 26.9347 423.632 26.7931 423.687 26.6392L428.929 11.7205C428.947 11.6654 428.983 11.6175 429.031 11.5836C429.078 11.5497 429.135 11.5315 429.193 11.5315C429.251 11.5315 429.308 11.5497 429.356 11.5836C429.403 11.6175 429.439 11.6654 429.458 11.7205L434.699 26.6392C434.81 26.95 435.039 27.2042 435.337 27.346C435.634 27.4878 435.976 27.5055 436.287 27.3952C436.598 27.2849 436.852 27.0557 436.994 26.758C437.136 26.4602 437.153 26.1183 437.043 25.8076L430.362 6.84421Z" fill="#94A3B8"/>
<defs>
<clipPath id="clip0_12_100">
<rect width="103.619" height="28" fill="white" transform="translate(238.993 3)"/>
</clipPath>
</defs>
</svg>
