<svg width="171" height="34" viewBox="0 0 171 34" fill="none" xmlns="http://www.w3.org/2000/svg">
<path d="M50.3857 8.95993H54.5904L56.7543 15.9794C57.1061 17.2636 57.4404 18.6886 57.7394 20.2192C58.0096 18.7801 58.3859 17.3629 58.8654 15.9794L61.1172 8.95993H65.2163L67.4154 15.9794C67.6089 16.6303 68.2774 19.0933 68.4709 20.184C68.7348 18.9525 69.2626 16.9997 69.5617 15.9794L71.7432 8.95993H76.0182L70.3533 25.321H66.5885L64.3367 18.2312C63.6682 16.0673 63.2987 14.5192 63.1756 13.6923C62.9996 14.4488 62.7006 15.6099 61.8737 18.3016L59.6219 25.321H55.6811L50.3857 8.95993Z" fill="white"/>
<path d="M78.0059 3.22467C78.0025 2.73756 78.1435 2.26036 78.4112 1.85341C78.679 1.44646 79.0614 1.12805 79.5101 0.938433C79.9588 0.748815 80.4536 0.696509 80.9321 0.78813C81.4105 0.879751 81.851 1.11118 82.1979 1.45316C82.5448 1.79514 82.7825 2.23231 82.881 2.70938C82.9794 3.18645 82.9342 3.682 82.751 4.13336C82.5678 4.58473 82.2549 4.97164 81.8518 5.24516C81.4487 5.51869 80.9736 5.66654 80.4865 5.67004C80.1624 5.6747 79.8406 5.61489 79.5399 5.49409C79.2391 5.37329 78.9654 5.1939 78.7345 4.96636C78.5037 4.73882 78.3205 4.46767 78.1954 4.16867C78.0703 3.86966 78.0059 3.54878 78.0059 3.22467ZM78.4633 8.95985H82.5096V25.321H78.4633V8.95985Z" fill="white"/>
<path d="M96.9528 12.6368H95.4574C92.537 12.6368 90.725 14.1849 90.725 17.3692V25.321H86.6787V8.99512H90.4963L90.725 11.3701C91.4111 9.7516 92.9769 8.66086 95.1583 8.66086C95.7635 8.66538 96.3659 8.74216 96.9528 8.88956V12.6368Z" fill="white"/>
<path d="M98.167 17.1405C98.167 12.0034 101.527 8.44974 106.33 8.44974C111.133 8.44974 114.335 11.7396 114.335 16.8414V18.0553L102.02 18.0905C102.319 20.9757 103.832 22.4359 106.523 22.4359C108.74 22.4359 110.2 21.5738 110.658 20.0081H114.405C113.701 23.597 110.728 25.7433 106.453 25.7433C101.58 25.7433 98.167 22.2071 98.167 17.1405ZM102.125 15.5044H110.323C110.323 13.2525 108.775 11.7747 106.348 11.7747C103.92 11.7747 102.512 13.059 102.125 15.5044Z" fill="white"/>
<path d="M117.589 8.95992H121.318L121.582 11.4405C122.585 9.55807 124.731 8.44974 127.212 8.44974C131.821 8.44974 134.865 11.8099 134.865 16.9294C134.865 22.0488 132.085 25.7433 127.212 25.7433C124.767 25.7433 122.656 24.7757 121.618 23.122V32.9034H117.589V8.95992ZM126.262 22.1016C129.112 22.1016 130.801 20.0433 130.801 17.1405C130.801 14.2377 129.112 12.1266 126.262 12.1266C123.412 12.1266 121.653 14.1849 121.653 17.1405C121.653 20.096 123.482 22.1016 126.262 22.1016Z" fill="white"/>
<path d="M137.346 20.6414C137.346 17.6331 139.545 15.7507 143.415 15.4516L148.323 15.0821V14.7127C148.323 12.496 146.986 11.5988 144.928 11.5988C142.553 11.5988 141.234 12.6016 141.234 14.3257H137.786C137.786 10.772 140.706 8.44974 145.139 8.44974C149.573 8.44974 152.264 10.8423 152.264 15.3812V25.321H148.711L148.411 22.8933C147.725 24.5821 145.509 25.7433 142.958 25.7433C139.474 25.7433 137.346 23.7201 137.346 20.6414ZM148.341 18.6886V17.8266L144.928 18.0905C142.412 18.3192 141.462 19.146 141.462 20.4831C141.462 21.8201 142.448 22.6997 144.277 22.6997C146.758 22.6997 148.341 21.2044 148.341 18.6886Z" fill="white"/>
<path d="M154.34 29.5257H156.768C158.351 29.5257 159.336 29.1562 160.04 27.2386L160.498 26.0072L153.918 8.95993H158.175L162.398 20.8701L166.831 8.95993H171L162.978 28.9627C161.764 32.0062 160.04 33.2553 157.349 33.2553C156.335 33.2648 155.324 33.1466 154.34 32.9035V29.5257Z" fill="white"/>
<path d="M7.28334 3.25996L0.47501 8.08033C0.327347 8.18673 0.207215 8.32684 0.124599 8.48901C0.0419825 8.65119 -0.000730941 8.83073 9.46394e-06 9.01274V28.3646C-0.00082366 28.6895 0.0892685 29.0082 0.2601 29.2847C0.430931 29.5611 0.675689 29.7842 0.9667 29.9288C1.25771 30.0734 1.58337 30.1337 1.90686 30.1029C2.23035 30.0721 2.53876 29.9513 2.79723 29.7544L19.6685 18.1961V29.297C19.6722 29.6164 19.7629 29.9289 19.9307 30.2007C20.0985 30.4725 20.3371 30.6936 20.6211 30.84C20.905 30.9865 21.2234 31.0529 21.5422 31.0321C21.861 31.0113 22.1681 30.9041 22.4306 30.722L44.3861 14.9942C44.5384 14.887 44.6627 14.7447 44.7484 14.5794C44.8341 14.414 44.8788 14.2305 44.8787 14.0442V4.19237C44.874 3.9779 44.8109 3.76879 44.6961 3.58756C44.5814 3.40633 44.4193 3.25986 44.2274 3.16392C44.0356 3.06799 43.8212 3.02624 43.6073 3.04316C43.3935 3.06008 43.1883 3.13504 43.0139 3.25996L27.0222 15.0294V4.19237C27.0214 3.97822 26.9614 3.76846 26.8489 3.58628C26.7363 3.40411 26.5755 3.25662 26.3843 3.16012C26.1932 3.06362 25.979 3.02187 25.7656 3.03949C25.5522 3.05711 25.3478 3.13341 25.175 3.25996L9.14816 14.2553V4.19237C9.14346 3.9779 9.08032 3.76879 8.96556 3.58756C8.85079 3.40633 8.68874 3.25986 8.49687 3.16392C8.305 3.06799 8.0906 3.02624 7.87675 3.04316C7.66291 3.06008 7.45773 3.13504 7.28334 3.25996Z" fill="white"/>
</svg>
